<svg xmlns="http://www.w3.org/2000/svg" xmlns:xlink="http://www.w3.org/1999/xlink" viewBox="0 0 1024 1024" width="1024" height="1024" preserveAspectRatio="xMidYMid meet" style="width: 100%; height: 100%; transform: translate3d(0px, 0px, 0px); content-visibility: visible;" id="Rocket"><defs><clipPath id="__lottie_element_1315"><rect width="1024" height="1024" x="0" y="0"/></clipPath><clipPath id="__lottie_element_1317"><path d="M0,0 L1024,0 L1024,1024 L0,1024z"/></clipPath><clipPath id="__lottie_element_1321"><path d="M0,0 L1024,0 L1024,1024 L0,1024z"/></clipPath><clipPath id="__lottie_element_1325"><path d="M0,0 L1024,0 L1024,1024 L0,1024z"/></clipPath><clipPath id="__lottie_element_1332"><path d="M0,0 L1024,0 L1024,1024 L0,1024z"/></clipPath><g id="__lottie_element_1341"><g transform="matrix(1,0,0,1,25.165008544921875,21.33447265625)" opacity="1" style="display: block;"><g opacity="1" transform="matrix(1,0,0,1,621.8499755859375,355.25)"><path fill="rgb(224,224,224)" fill-opacity="1" d=" M64.95999908447266,-66.76000213623047 C20.399999618530273,-107.80000305175781 -41.599998474121094,-96.76000213623047 -72.16000366210938,-60.279998779296875 C-103.5199966430664,-22.68000030517578 -101.19999694824219,34.7599983215332 -64.16000366210938,69.31999969482422 C-30.479999542236328,100.68000030517578 32.15999984741211,107.80000305175781 69.91999816894531,63.79999923706055 C103.5199966430664,24.760000228881836 101.44000244140625,-33.2400016784668 64.95999908447266,-66.76000213623047z"/></g><g opacity="1" transform="matrix(1,0,0,1,620.489990234375,355.3699951171875)"><path fill="rgb(62,83,95)" fill-opacity="1" d=" M-47.7599983215332,-45.91999816894531 C-74.23999786376953,-19.920000076293945 -72.80000305175781,31.600000381469727 -41.279998779296875,55.119998931884766 C-13.760000228881836,75.68000030517578 25.280000686645508,74.63999938964844 49.7599983215332,49.599998474121094 C74.23999786376953,24.559999465942383 74.23999786376953,-20.959999084472656 51.279998779296875,-44.47999954223633 C24.8799991607666,-71.44000244140625 -17.440000534057617,-75.68000030517578 -47.7599983215332,-45.91999816894531z"/></g></g></g><mask id="__lottie_element_1341_1" mask-type="alpha"><use xmlns:ns1="http://www.w3.org/1999/xlink" ns1:href="#__lottie_element_1341"/></mask><g id="__lottie_element_1374"><g transform="matrix(1,0,0,1,29.910003662109375,25.510009765625)" opacity="1" style="display: block;"><g opacity="1" transform="matrix(1,0,0,1,805.4099731445312,154.72999572753906)"><path fill="rgb(215,62,33)" fill-opacity="1" d=" M-1.8799999952316284,154.47999572753906 C-1.8799999952316284,154.47999572753906 -68.83999633789062,125.91999816894531 -116.5999984741211,59.279998779296875 C-164.0399932861328,-6.880000114440918 -160.27999877929688,-51.599998474121094 -160.27999877929688,-51.599998474121094 C-160.27999877929688,-51.599998474121094 -120.5999984741211,-82.72000122070312 -31.399999618530273,-118.31999969482422 C28.600000381469727,-142.24000549316406 110.27999877929688,-154.47999572753906 137.16000366210938,-134.55999755859375 C164.0399932861328,-114.63999938964844 118.76000213623047,-14.720000267028809 118.76000213623047,-14.720000267028809 C118.76000213623047,-14.720000267028809 36.279998779296875,144.9600067138672 36.279998779296875,144.9600067138672 C36.279998779296875,144.9600067138672 -1.8799999952316284,154.47999572753906 -1.8799999952316284,154.47999572753906z"/></g><g opacity="1" transform="matrix(1,0,0,1,893.4099731445312,176.57000732421875)"><path fill="rgb(159,35,33)" fill-opacity="1" d=" M-21.639999389648438,153.75999450683594 C-21.639999389648438,153.75999450683594 13.079999923706055,111.91999816894531 45.959999084472656,17.600000381469727 C91.87999725341797,-113.91999816894531 51.880001068115234,-153.75999450683594 51.880001068115234,-153.75999450683594 C51.880001068115234,-153.75999450683594 38.36000061035156,-91.19999694824219 -8.600000381469727,-4.239999771118164 C-46.279998779296875,65.44000244140625 -91.87999725341797,131.75999450683594 -91.87999725341797,131.75999450683594 C-91.87999725341797,131.75999450683594 -66.76000213623047,143.0399932861328 -53.15999984741211,146.9600067138672 C-36.040000915527344,151.9199981689453 -21.639999389648438,153.75999450683594 -21.639999389648438,153.75999450683594z"/></g></g></g><g id="__lottie_element_1380"><g transform="matrix(1,0,0,1,29.910003662109375,25.510009765625)" opacity="1" style="display: block;"><g opacity="1" transform="matrix(1,0,0,1,805.4099731445312,154.72999572753906)"><path fill="rgb(215,62,33)" fill-opacity="1" d=" M-1.8799999952316284,154.47999572753906 C-1.8799999952316284,154.47999572753906 -68.83999633789062,125.91999816894531 -116.5999984741211,59.279998779296875 C-164.0399932861328,-6.880000114440918 -160.27999877929688,-51.599998474121094 -160.27999877929688,-51.599998474121094 C-160.27999877929688,-51.599998474121094 -120.5999984741211,-82.72000122070312 -31.399999618530273,-118.31999969482422 C28.600000381469727,-142.24000549316406 110.27999877929688,-154.47999572753906 137.16000366210938,-134.55999755859375 C164.0399932861328,-114.63999938964844 118.76000213623047,-14.720000267028809 118.76000213623047,-14.720000267028809 C118.76000213623047,-14.720000267028809 36.279998779296875,144.9600067138672 36.279998779296875,144.9600067138672 C36.279998779296875,144.9600067138672 -1.8799999952316284,154.47999572753906 -1.8799999952316284,154.47999572753906z"/></g><g opacity="1" transform="matrix(1,0,0,1,893.4099731445312,176.57000732421875)"><path fill="rgb(159,35,33)" fill-opacity="1" d=" M-21.639999389648438,153.75999450683594 C-21.639999389648438,153.75999450683594 13.079999923706055,111.91999816894531 45.959999084472656,17.600000381469727 C91.87999725341797,-113.91999816894531 51.880001068115234,-153.75999450683594 51.880001068115234,-153.75999450683594 C51.880001068115234,-153.75999450683594 38.36000061035156,-91.19999694824219 -8.600000381469727,-4.239999771118164 C-46.279998779296875,65.44000244140625 -91.87999725341797,131.75999450683594 -91.87999725341797,131.75999450683594 C-91.87999725341797,131.75999450683594 -66.76000213623047,143.0399932861328 -53.15999984741211,146.9600067138672 C-36.040000915527344,151.9199981689453 -21.639999389648438,153.75999450683594 -21.639999389648438,153.75999450683594z"/></g></g></g><mask id="__lottie_element_1380_1" mask-type="alpha"><use xmlns:ns2="http://www.w3.org/1999/xlink" ns2:href="#__lottie_element_1380"/></mask><filter id="__lottie_element_1383" filterUnits="objectBoundingBox" x="0%" y="0%" width="100%" height="100%"><feComponentTransfer in="SourceGraphic"><feFuncA type="table" tableValues="1.0 0.0"/></feComponentTransfer></filter><mask id="__lottie_element_1374_2" mask-type="alpha"><g filter="url(#__lottie_element_1383)"><rect width="1024" height="1024" x="0" y="0" fill="#ffffff" opacity="0"/><use xmlns:ns3="http://www.w3.org/1999/xlink" ns3:href="#__lottie_element_1374"/></g></mask><clipPath id="__lottie_element_1409"><path d="M0,0 L1024,0 L1024,1024 L0,1024z"/></clipPath><clipPath id="__lottie_element_1413"><path d="M0,0 L1024,0 L1024,1024 L0,1024z"/></clipPath><clipPath id="__lottie_element_1417"><path d="M0,0 L1024,0 L1024,1024 L0,1024z"/></clipPath><g id="__lottie_element_1447"><g transform="matrix(1,0,0,1,29.910003662109375,25.510009765625)" opacity="1" style="display: block;"><g opacity="1" transform="matrix(1,0,0,1,805.4099731445312,154.72999572753906)"><path fill="rgb(215,62,33)" fill-opacity="1" d=" M-1.8799999952316284,154.47999572753906 C-1.8799999952316284,154.47999572753906 -68.83999633789062,125.91999816894531 -116.5999984741211,59.279998779296875 C-164.0399932861328,-6.880000114440918 -160.27999877929688,-51.599998474121094 -160.27999877929688,-51.599998474121094 C-160.27999877929688,-51.599998474121094 -120.5999984741211,-82.72000122070312 -31.399999618530273,-118.31999969482422 C28.600000381469727,-142.24000549316406 110.27999877929688,-154.47999572753906 137.16000366210938,-134.55999755859375 C164.0399932861328,-114.63999938964844 118.76000213623047,-14.720000267028809 118.76000213623047,-14.720000267028809 C118.76000213623047,-14.720000267028809 36.279998779296875,144.9600067138672 36.279998779296875,144.9600067138672 C36.279998779296875,144.9600067138672 -1.8799999952316284,154.47999572753906 -1.8799999952316284,154.47999572753906z"/></g><g opacity="1" transform="matrix(1,0,0,1,893.4099731445312,176.57000732421875)"><path fill="rgb(159,35,33)" fill-opacity="1" d=" M-21.639999389648438,153.75999450683594 C-21.639999389648438,153.75999450683594 13.079999923706055,111.91999816894531 45.959999084472656,17.600000381469727 C91.87999725341797,-113.91999816894531 51.880001068115234,-153.75999450683594 51.880001068115234,-153.75999450683594 C51.880001068115234,-153.75999450683594 38.36000061035156,-91.19999694824219 -8.600000381469727,-4.239999771118164 C-46.279998779296875,65.44000244140625 -91.87999725341797,131.75999450683594 -91.87999725341797,131.75999450683594 C-91.87999725341797,131.75999450683594 -66.76000213623047,143.0399932861328 -53.15999984741211,146.9600067138672 C-36.040000915527344,151.9199981689453 -21.639999389648438,153.75999450683594 -21.639999389648438,153.75999450683594z"/></g></g></g><g id="__lottie_element_1453"><g transform="matrix(1,0,0,1,29.910003662109375,25.510009765625)" opacity="1" style="display: block;"><g opacity="1" transform="matrix(1,0,0,1,805.4099731445312,154.72999572753906)"><path fill="rgb(215,62,33)" fill-opacity="1" d=" M-1.8799999952316284,154.47999572753906 C-1.8799999952316284,154.47999572753906 -68.83999633789062,125.91999816894531 -116.5999984741211,59.279998779296875 C-164.0399932861328,-6.880000114440918 -160.27999877929688,-51.599998474121094 -160.27999877929688,-51.599998474121094 C-160.27999877929688,-51.599998474121094 -120.5999984741211,-82.72000122070312 -31.399999618530273,-118.31999969482422 C28.600000381469727,-142.24000549316406 110.27999877929688,-154.47999572753906 137.16000366210938,-134.55999755859375 C164.0399932861328,-114.63999938964844 118.76000213623047,-14.720000267028809 118.76000213623047,-14.720000267028809 C118.76000213623047,-14.720000267028809 36.279998779296875,144.9600067138672 36.279998779296875,144.9600067138672 C36.279998779296875,144.9600067138672 -1.8799999952316284,154.47999572753906 -1.8799999952316284,154.47999572753906z"/></g><g opacity="1" transform="matrix(1,0,0,1,893.4099731445312,176.57000732421875)"><path fill="rgb(159,35,33)" fill-opacity="1" d=" M-21.639999389648438,153.75999450683594 C-21.639999389648438,153.75999450683594 13.079999923706055,111.91999816894531 45.959999084472656,17.600000381469727 C91.87999725341797,-113.91999816894531 51.880001068115234,-153.75999450683594 51.880001068115234,-153.75999450683594 C51.880001068115234,-153.75999450683594 38.36000061035156,-91.19999694824219 -8.600000381469727,-4.239999771118164 C-46.279998779296875,65.44000244140625 -91.87999725341797,131.75999450683594 -91.87999725341797,131.75999450683594 C-91.87999725341797,131.75999450683594 -66.76000213623047,143.0399932861328 -53.15999984741211,146.9600067138672 C-36.040000915527344,151.9199981689453 -21.639999389648438,153.75999450683594 -21.639999389648438,153.75999450683594z"/></g></g></g><mask id="__lottie_element_1453_1" mask-type="alpha"><use xmlns:ns4="http://www.w3.org/1999/xlink" ns4:href="#__lottie_element_1453"/></mask><filter id="__lottie_element_1456" filterUnits="objectBoundingBox" x="0%" y="0%" width="100%" height="100%"><feComponentTransfer in="SourceGraphic"><feFuncA type="table" tableValues="1.0 0.0"/></feComponentTransfer></filter><mask id="__lottie_element_1447_2" mask-type="alpha"><g filter="url(#__lottie_element_1456)"><rect width="1024" height="1024" x="0" y="0" fill="#ffffff" opacity="0"/><use xmlns:ns5="http://www.w3.org/1999/xlink" ns5:href="#__lottie_element_1447"/></g></mask></defs><g clip-path="url(#__lottie_element_1315)"><g clip-path="url(#__lottie_element_1317)" transform="matrix(1,0,0,1,0,0)" opacity="1" style="display: block;"><g clip-path="url(#__lottie_element_1321)" transform="matrix(1,0,0,1,0,0)" opacity="1" style="display: block;"><g transform="matrix(1,0,0,1,512,512)" opacity="1" style="display: block;"><g opacity="1" transform="matrix(1,0,0,1,0,0)"><path stroke-linecap="round" stroke-linejoin="round" fill-opacity="0" stroke="rgb(217,217,217)" stroke-opacity="1" stroke-width="31" d=" M118.5,293.5 C118.5,293.5 91.25,319.75 91.25,319.75"/></g></g><g transform="matrix(1,0,0,1,512,512)" opacity="1" style="display: none;"><g opacity="1" transform="matrix(1,0,0,1,0,0)"><path stroke-linecap="round" stroke-linejoin="round" fill-opacity="0" stroke="rgb(217,217,217)" stroke-opacity="1" stroke-width="31" d=" M44.078399658203125,471.9216003417969 C44.078399658203125,471.9216003417969 36,480 36,480"/></g></g><g transform="matrix(1,0,0,1,512,512)" opacity="1" style="display: block;"><g opacity="1" transform="matrix(1,0,0,1,0,0)"><path stroke-linecap="round" stroke-linejoin="round" fill-opacity="0" stroke="rgb(217,217,217)" stroke-opacity="1" stroke-width="31" d=" M-329.79998779296875,-116.19999694824219 C-329.79998779296875,-116.19999694824219 -412.20001220703125,-37 -412.20001220703125,-37"/></g></g><g transform="matrix(1,0,0,1,512,512)" opacity="1" style="display: none;"><g opacity="1" transform="matrix(1,0,0,1,0,0)"><path stroke-linecap="round" stroke-linejoin="round" fill-opacity="0" stroke="rgb(217,217,217)" stroke-opacity="1" stroke-width="31" d=" M-476.9612121582031,-69.03880310058594 C-476.9612121582031,-69.03880310058594 -481,-65 -481,-65"/></g></g><g transform="matrix(1,0,0,1,512,512)" opacity="1" style="display: block;"><g opacity="1" transform="matrix(1,0,0,1,0,0)"><path stroke-linecap="round" stroke-linejoin="round" fill-opacity="0" stroke="rgb(217,217,217)" stroke-opacity="1" stroke-width="31" d=" M-414.8571472167969,-327.1428527832031 C-414.8571472167969,-327.1428527832031 -433.4285583496094,-308.5714416503906 -433.4285583496094,-308.5714416503906"/></g></g><g transform="matrix(1,0,0,1,512,512)" opacity="1" style="display: block;"><g opacity="1" transform="matrix(1,0,0,1,0,0)"><path stroke-linecap="round" stroke-linejoin="round" fill-opacity="0" stroke="rgb(217,217,217)" stroke-opacity="1" stroke-width="31" d=" M311.3999938964844,366.6000061035156 C311.3999938964844,366.6000061035156 247,431 247,431"/></g></g><g transform="matrix(1,0,0,1,512,512)" opacity="1" style="display: none;"><g opacity="1" transform="matrix(1,0,0,1,0,0)"><path stroke-linecap="round" stroke-linejoin="round" fill-opacity="0" stroke="rgb(217,217,217)" stroke-opacity="1" stroke-width="31" d=" M348.4620056152344,63.53799819946289 C348.4620056152344,63.53799819946289 272.6650085449219,135.3489990234375 272.6650085449219,135.3489990234375"/></g></g><g transform="matrix(1,0,0,1,512,512)" opacity="1" style="display: block;"><g opacity="1" transform="matrix(1,0,0,1,0,0)"><path stroke-linecap="round" stroke-linejoin="round" fill-opacity="0" stroke="rgb(217,217,217)" stroke-opacity="1" stroke-width="31" d=" M474.77777099609375,39.44444274902344 C474.77777099609375,39.44444274902344 442,74 442,74"/></g></g><g transform="matrix(1,0,0,1,512,512)" opacity="1" style="display: none;"><g opacity="1" transform="matrix(1,0,0,1,0,0)"><path stroke-linecap="round" stroke-linejoin="round" fill-opacity="0" stroke="rgb(217,217,217)" stroke-opacity="1" stroke-width="31" d=" M-111.63833618164062,-334.3616638183594 C-111.63833618164062,-334.3616638183594 -296.246337890625,-151.75833129882812 -296.246337890625,-151.75833129882812"/></g></g><g transform="matrix(1,0,0,1,512,512)" opacity="1" style="display: block;"><g opacity="1" transform="matrix(1,0,0,1,0,0)"><path stroke-linecap="round" stroke-linejoin="round" fill-opacity="0" stroke="rgb(217,217,217)" stroke-opacity="1" stroke-width="31" d=" M-120,-426 C-120,-426 -157.44444274902344,-392.3333435058594 -157.44444274902344,-392.3333435058594"/></g></g><g transform="matrix(1,0,0,1,512,512)" opacity="1" style="display: none;"><g opacity="1" transform="matrix(1,0,0,1,0,0)"><path stroke-linecap="round" stroke-linejoin="round" fill-opacity="0" stroke="rgb(217,217,217)" stroke-opacity="1" stroke-width="31" d=" M-264,-478 C-264,-478 -321.7806701660156,-420.2193298339844 -321.7806701660156,-420.2193298339844"/></g></g><g transform="matrix(1,0,0,1,512,512)" opacity="1" style="display: none;"><g opacity="1" transform="matrix(1,0,0,1,0,0)"><path stroke-linecap="round" stroke-linejoin="round" fill-opacity="0" stroke="rgb(217,217,217)" stroke-opacity="1" stroke-width="31" d=" M480,198 C480,198 328.3453369140625,349.6546630859375 328.3453369140625,349.6546630859375"/></g></g></g><g clip-path="url(#__lottie_element_1409)" transform="matrix(1,0,0,1,0,0)" opacity="1" style="display: none;"><g transform="matrix(1,0,0,1,512,512)" opacity="1" style="display: none;"><g opacity="1" transform="matrix(1,0,0,1,0,0)"><path stroke-linecap="round" stroke-linejoin="round" fill-opacity="0" stroke="rgb(217,217,217)" stroke-opacity="1" stroke-width="31" d=" M42.38249969482422,369.61749267578125 C42.38249969482422,369.61749267578125 31.301250457763672,380.6937561035156 31.301250457763672,380.6937561035156"/></g></g><g transform="matrix(1,0,0,1,512,512)" opacity="1" style="display: none;"><g opacity="1" transform="matrix(1,0,0,1,0,0)"><path stroke-linecap="round" stroke-linejoin="round" fill-opacity="0" stroke="rgb(217,217,217)" stroke-opacity="1" stroke-width="31" d=" M44.627201080322266,471.372802734375 C44.627201080322266,471.372802734375 36,480 36,480"/></g></g><g transform="matrix(1,0,0,1,512,512)" opacity="1" style="display: none;"><g opacity="1" transform="matrix(1,0,0,1,0,0)"><path stroke-linecap="round" stroke-linejoin="round" fill-opacity="0" stroke="rgb(217,217,217)" stroke-opacity="1" stroke-width="31" d=" M-474.56439208984375,28.56439971923828 C-474.56439208984375,28.56439971923828 -488.76959228515625,38.77199935913086 -488.76959228515625,38.77199935913086"/></g></g><g transform="matrix(1,0,0,1,512,512)" opacity="1" style="display: none;"><g opacity="1" transform="matrix(1,0,0,1,0,0)"><path stroke-linecap="round" stroke-linejoin="round" fill-opacity="0" stroke="rgb(217,217,217)" stroke-opacity="1" stroke-width="31" d=" M-476.6896057128906,-69.3104019165039 C-476.6896057128906,-69.3104019165039 -481,-65 -481,-65"/></g></g><g transform="matrix(1,0,0,1,512,512)" opacity="1" style="display: none;"><g opacity="1" transform="matrix(1,0,0,1,0,0)"><path stroke-linecap="round" stroke-linejoin="round" fill-opacity="0" stroke="rgb(217,217,217)" stroke-opacity="1" stroke-width="31" d=" M-439.6982727050781,-302.3017272949219 C-439.6982727050781,-302.3017272949219 -451.7771301269531,-290.2228698730469 -451.7771301269531,-290.2228698730469"/></g></g><g transform="matrix(1,0,0,1,512,512)" opacity="1" style="display: none;"><g opacity="1" transform="matrix(1,0,0,1,0,0)"><path stroke-linecap="round" stroke-linejoin="round" fill-opacity="0" stroke="rgb(217,217,217)" stroke-opacity="1" stroke-width="31" d=" M199.3372039794922,478.6628112792969 C199.3372039794922,478.6628112792969 193.16200256347656,484.8380126953125 193.16200256347656,484.8380126953125"/></g></g><g transform="matrix(1,0,0,1,512,512)" opacity="1" style="display: block;"><g opacity="1" transform="matrix(1,0,0,1,0,0)"><path stroke-linecap="round" stroke-linejoin="round" fill-opacity="0" stroke="rgb(217,217,217)" stroke-opacity="1" stroke-width="31" d=" M381,31 C381,31 319.5,89.5 319.5,89.5"/></g></g><g transform="matrix(1,0,0,1,512,512)" opacity="1" style="display: block;"><g opacity="1" transform="matrix(1,0,0,1,0,0)"><path stroke-linecap="round" stroke-linejoin="round" fill-opacity="0" stroke="rgb(217,217,217)" stroke-opacity="1" stroke-width="31" d=" M264.1666564941406,251.8333282470703 C264.1666564941406,251.8333282470703 53,463 53,463"/></g></g><g transform="matrix(1,0,0,1,512,512)" opacity="1" style="display: block;"><g opacity="1" transform="matrix(1,0,0,1,0,0)"><path stroke-linecap="round" stroke-linejoin="round" fill-opacity="0" stroke="rgb(217,217,217)" stroke-opacity="1" stroke-width="31" d=" M-86.16666412353516,-359.8333435058594 C-86.16666412353516,-359.8333435058594 -243.1666717529297,-205.1666717529297 -243.1666717529297,-205.1666717529297"/></g></g><g transform="matrix(1,0,0,1,512,512)" opacity="1" style="display: block;"><g opacity="1" transform="matrix(1,0,0,1,0,0)"><path stroke-linecap="round" stroke-linejoin="round" fill-opacity="0" stroke="rgb(217,217,217)" stroke-opacity="1" stroke-width="31" d=" M-348.6666564941406,-197.3333282470703 C-348.6666564941406,-197.3333282470703 -469,-77.33333587646484 -469,-77.33333587646484"/></g></g><g transform="matrix(1,0,0,1,512,512)" opacity="1" style="display: block;"><g opacity="1" transform="matrix(1,0,0,1,0,0)"><path stroke-linecap="round" stroke-linejoin="round" fill-opacity="0" stroke="rgb(217,217,217)" stroke-opacity="1" stroke-width="31" d=" M-264,-478 C-264,-478 -306.3333435058594,-435.6666564941406 -306.3333435058594,-435.6666564941406"/></g></g><g transform="matrix(1,0,0,1,512,512)" opacity="1" style="display: block;"><g opacity="1" transform="matrix(1,0,0,1,0,0)"><path stroke-linecap="round" stroke-linejoin="round" fill-opacity="0" stroke="rgb(217,217,217)" stroke-opacity="1" stroke-width="31" d=" M480,198 C480,198 352.6666564941406,325.3333435058594 352.6666564941406,325.3333435058594"/></g></g></g><g clip-path="url(#__lottie_element_1325)" transform="matrix(1,0,0,1,0,0)" opacity="1" style="display: block;"><g transform="matrix(1,0,0,1,19.477005004882812,606.197998046875)" opacity="1" style="display: block;"><g opacity="1" transform="matrix(1,0,0,1,219.18699645996094,179.04200744628906)"><path fill="rgb(247,214,77)" fill-opacity="1" d=" M65.88899993896484,-132.36500549316406 C65.88899993896484,-132.36500549316406 24.027999877929688,-153.9739990234375 -25.31800079345703,-133.10699462890625 C-74.66400146484375,-112.23999786376953 -85.66400146484375,-75.23999786376953 -94.13899993896484,-34.369998931884766 C-99.06400299072266,-21.139999389648438 -111.70099639892578,36.150001525878906 -117.24099731445312,58.61199951171875 C-125.66400146484375,92.76000213623047 -110.98600006103516,102.69200134277344 -103.52999877929688,113.06500244140625 C-96.0739974975586,123.43900299072266 -117.58200073242188,166.3820037841797 -92.09400177001953,167.17799377441406 C-86.21299743652344,173.05499267578125 -13.354000091552734,155.2220001220703 17.14299964904785,134.28599548339844 C49.64799880981445,111.36499786376953 135.56300354003906,69.26599884033203 159.30299377441406,-7.375 C174.5240020751953,-56.51300048828125 65.88899993896484,-132.36500549316406 65.88899993896484,-132.36500549316406z"/></g><g opacity="1" transform="matrix(1,0,0,1,220.4810028076172,175.01600646972656)"><path fill="rgb(250,239,180)" fill-opacity="1" d=" M92.59400177001953,-105.83599853515625 C92.59400177001953,-105.83599853515625 -0.09399999678134918,-107.0479965209961 -38.32500076293945,-57.41899871826172 C-76.55899810791016,-7.821000099182129 -78.3740005493164,19.216999053955078 -84.35199737548828,44.292999267578125 C-87.92500305175781,67.83300018310547 -69.56199645996094,121.53399658203125 -46.33300018310547,119.80500030517578 C-36.0890007019043,120.29399871826172 12.013999938964844,103.86000061035156 45.487998962402344,80.86399841308594 C93.60900115966797,51.9739990234375 113.86199951171875,24.30900001525879 118.50499725341797,-10.161999702453613 C123.14800262451172,-44.632999420166016 92.59400177001953,-105.83599853515625 92.59400177001953,-105.83599853515625z"/></g></g><g transform="matrix(1,0,0,1,19.477005004882812,606.197998046875)" opacity="1" style="display: none;"><g opacity="1" transform="matrix(1,0,0,1,33.24100112915039,279.9519958496094)"><path fill="rgb(247,214,77)" fill-opacity="1" d=" M-37.784000396728516,43.827999114990234 C-37.46799850463867,41.08000183105469 -39.58100128173828,40.03900146484375 -41.81100082397461,41.27799987792969 C-43.04999923706055,41.965999603271484 -44.90299987792969,44.15399932861328 -45.053001403808594,45.9900016784668 C-45.21799850463867,48.01499938964844 -43.770999908447266,49.404998779296875 -41.65599822998047,48.86800003051758 C-39.64899826049805,48.35900115966797 -38.06800079345703,46.29600143432617 -37.784000396728516,43.827999114990234z"/></g></g><g transform="matrix(1,0,0,1,19.477005004882812,606.197998046875)" opacity="1" style="display: none;"><g opacity="1" transform="matrix(1,0,0,1,33.24100112915039,279.9519958496094)"><path fill="rgb(247,214,77)" fill-opacity="1" d=" M28.203327178955078,-9.197261810302734 C33.123023986816406,-37.93373489379883 10.866344451904297,-31.45286750793457 -2.8644347190856934,-15.767576217651367 C-13.409152030944824,-3.725205421447754 -27.400793075561523,15.13235092163086 -31.384641647338867,28.867395401000977 C-32.758724212646484,33.60960388183594 -28.064571380615234,37.831172943115234 -23.516881942749023,35.847103118896484 C-3.669924736022949,27.198284149169922 23.706647872924805,17.066802978515625 28.203327178955078,-9.197261810302734z"/></g></g><g transform="matrix(1,0,0,1,512,512)" opacity="1" style="display: none;"><g opacity="1" transform="matrix(1,0,0,1,0,0)"><path fill="rgb(247,215,77)" fill-opacity="1" d=" M-416.6780090332031,444.52099609375 C-419.87298583984375,440.99798583984375 -427.3999938964844,440.3900146484375 -431.4779968261719,443.6400146484375 C-435.5559997558594,446.8900146484375 -437.5989990234375,450.5480041503906 -434.8450012207031,454.8840026855469 C-432.843994140625,458.03399658203125 -426.1709899902344,459.4010009765625 -421.49200439453125,456.4779968261719 C-416.81298828125,453.55499267578125 -413.4830017089844,448.04400634765625 -416.6780090332031,444.52099609375z"/></g></g></g><g clip-path="url(#__lottie_element_1413)" transform="matrix(1,0,0,1,0,0)" opacity="1" style="display: none;"><g transform="matrix(1,0,0,1,19.477005004882812,606.197998046875)" opacity="1" style="display: block;"><g opacity="1" transform="matrix(1,0,0,1,219.18699645996094,179.04200744628906)"><path fill="rgb(247,214,77)" fill-opacity="1" d=" M-58.611000061035156,-108.36499786376953 C-107.2586669921875,-60.102333068847656 -127.19999694824219,0.9486666917800903 -116.76799774169922,54.643001556396484 C-118.3306655883789,74.76000213623047 -118.10399627685547,89.47333526611328 -127.52566528320312,111.36666870117188 C-136.94732666015625,133.25999450683594 -144.50332641601562,152.3626708984375 -141.8336639404297,160.14466857910156 C-139.16400146484375,167.92666625976562 -131.45632934570312,166.2429962158203 -113.08499908447266,159.80499267578125 C-91.91033172607422,152.17100524902344 7.301666736602783,137.4219970703125 70.92366790771484,90.83100128173828 C139.67999267578125,40.301334381103516 146.31500244140625,-15.696999549865723 143.73199462890625,-45.56399917602539 C141.33599853515625,-80.23999786376953 94.38066864013672,-120.39666748046875 84.00299835205078,-128.1750030517578 C77.14266967773438,-133.31700134277344 7.455333232879639,-173.90834045410156 -58.611000061035156,-108.36499786376953z"/></g><g opacity="1" transform="matrix(1,0,0,1,220.4810028076172,175.01600646972656)"><path fill="rgb(250,239,180)" fill-opacity="1" d=" M-26.05066680908203,-77.26466369628906 C-82.95733642578125,-27.21500015258789 -67.96900177001953,13.28066635131836 -67.302001953125,34.685665130615234 C-66.63500213623047,56.090667724609375 -95.7699966430664,97.8116683959961 -92.46900177001953,112.05699920654297 C-88.71700286865234,125.01300048828125 7.276333332061768,99.68633270263672 55.31666564941406,60.448001861572266 C89.16166687011719,34.34233474731445 104.26566314697266,-6.569333553314209 108.15399932861328,-31.391666412353516 C112.0423355102539,-56.2140007019043 101.03666687011719,-69.16699981689453 94.12699890136719,-77.2066650390625 C87.21733093261719,-85.24633026123047 30.856000900268555,-127.3143310546875 -26.05066680908203,-77.26466369628906z"/></g></g><g transform="matrix(1,0,0,1,19.477005004882812,606.197998046875)" opacity="1" style="display: none;"><g opacity="1" transform="matrix(1,0,0,1,33.24100112915039,279.9519958496094)"><path fill="rgb(247,214,77)" fill-opacity="1" d=" M-15.483477592468262,25.894922256469727 C-13.60588550567627,14.324995040893555 -22.566387176513672,15.863280296325684 -28.693424224853516,21.999738693237305 C-33.08100891113281,26.53228187561035 -39.05016326904297,34.355018615722656 -40.5026741027832,40.231990814208984 C-41.07712173461914,43.17409896850586 -38.52573013305664,45.515750885009766 -35.59691619873047,44.49412155151367 C-27.533876419067383,41.22329330444336 -17.195972442626953,36.43843078613281 -15.483477592468262,25.894922256469727z"/></g></g><g transform="matrix(1,0,0,1,19.477005004882812,606.197998046875)" opacity="1" style="display: block;"><g opacity="1" transform="matrix(1,0,0,1,33.24100112915039,279.9519958496094)"><path fill="rgb(247,214,77)" fill-opacity="1" d=" M38.01599884033203,-14.357000350952148 C42.42133331298828,-38.830665588378906 25.46933364868164,-38.979331970214844 12.176666259765625,-24.329999923706055 C1.0180000066757202,-12.12066650390625 -11.892000198364258,8.959333419799805 -15.020000457763672,20.373332977294922 C-16.399999618530273,25.763999938964844 -12.680999755859375,31.504667282104492 -6.042333126068115,28.388999938964844 C10.843667030334473,20.80933380126953 33.89400100708008,8.46066665649414 38.01599884033203,-14.357000350952148z"/></g></g><g transform="matrix(1,0,0,1,512,512)" opacity="1" style="display: none;"><g opacity="1" transform="matrix(1,0,0,1,0,0)"><path fill="rgb(247,215,77)" fill-opacity="1" d=" M-416.6780090332031,444.52099609375 C-419.87298583984375,440.99798583984375 -427.3999938964844,440.3900146484375 -431.4779968261719,443.6400146484375 C-435.5559997558594,446.8900146484375 -437.5989990234375,450.5480041503906 -434.8450012207031,454.8840026855469 C-432.843994140625,458.03399658203125 -426.1709899902344,459.4010009765625 -421.49200439453125,456.4779968261719 C-416.81298828125,453.55499267578125 -413.4830017089844,448.04400634765625 -416.6780090332031,444.52099609375z"/></g></g></g><g transform="matrix(1,0,0,1,29.910003662109375,25.510009765625)" opacity="1" style="display: block;"><g opacity="1" transform="matrix(1,0,0,1,313.3699951171875,663.489990234375)"><path fill="rgb(133,133,133)" fill-opacity="1" d=" M-52.47999954223633,-93.4800033569336 C-52.47999954223633,-93.4800033569336 -77.36000061035156,-71.32099914550781 -86.23999786376953,-58.599998474121094 C-95.12000274658203,-45.880001068115234 -95.12000274658203,-44.7599983215332 -94.55999755859375,-40.91999816894531 C-94,-37.08100128173828 -84.80000305175781,5.079999923706055 -46.47999954223633,42.040000915527344 C0.5600000023841858,87.4000015258789 42.560001373291016,93.4800033569336 48.63999938964844,93.4800033569336 C54.720001220703125,93.4800033569336 95.12000274658203,48.119998931884766 95.12000274658203,48.119998931884766 C95.12000274658203,48.119998931884766 -52.47999954223633,-93.4800033569336 -52.47999954223633,-93.4800033569336z"/></g><g opacity="1" transform="matrix(1,0,0,1,621.3300170898438,450.8900146484375)"><path fill="rgb(67,118,134)" fill-opacity="1" d=" M-250.44000244140625,253.52000427246094 C-250.44000244140625,253.52000427246094 -209.80799865722656,280.31201171875 -142.20799255371094,257.5920104980469 C-49.80799865722656,226.552001953125 17.639999389648438,156.8000030517578 101.55999755859375,69.12100219726562 C182.52000427246094,-15.520000457763672 250.44000244140625,-120.55999755859375 250.44000244140625,-120.55999755859375 C250.44000244140625,-120.55999755859375 202.83999633789062,-280 202.83999633789062,-280 C202.83999633789062,-280 -250.44000244140625,253.52000427246094 -250.44000244140625,253.52000427246094z"/></g><g opacity="1" transform="matrix(1,0,0,1,569.72998046875,616.2899780273438)"><path fill="rgb(62,83,95)" fill-opacity="1" d=" M-55.720001220703125,0.8389999866485596 C-55.720001220703125,0.8389999866485596 -44.599998474121094,-33.72100067138672 -44.599998474121094,-33.72100067138672 C-44.599998474121094,-33.72100067138672 -16.760000228881836,-29.801000595092773 -16.760000228881836,-29.801000595092773 C-16.760000228881836,-29.801000595092773 4.440000057220459,-19.801000595092773 20.040000915527344,-12.520000457763672 C35.63999938964844,-5.239999771118164 55.720001220703125,0.27900001406669617 55.720001220703125,0.27900001406669617 C55.720001220703125,0.27900001406669617 16.1200008392334,33.720001220703125 16.1200008392334,33.720001220703125 C16.1200008392334,33.720001220703125 -5.480000019073486,25.559999465942383 -21.239999771118164,18.68000030517578 C-39,10.918999671936035 -55.720001220703125,0.8389999866485596 -55.720001220703125,0.8389999866485596z"/></g><g opacity="1" transform="matrix(1,0,0,1,540.530029296875,404.25)"><path fill="rgb(141,174,190)" fill-opacity="1" d=" M104.12000274658203,-300.6400146484375 C104.12000274658203,-300.6400146484375 27.15999984741211,-256 -83.16000366210938,-151.60000610351562 C-182.60000610351562,-57.52000045776367 -256.2799987792969,27.600000381469727 -274.1199951171875,100 C-289,160.63999938964844 -281.0799865722656,197.44000244140625 -247.24000549316406,237.1999969482422 C-211.47999572753906,279.2799987792969 -169.55999755859375,300.1600036621094 -169.55999755859375,300.1600036621094 C-169.55999755859375,300.1600036621094 -138.0399932861328,300.6400146484375 -6.519999980926514,199.44000244140625 C157.55999755859375,73.12000274658203 289,-138.39999389648438 289,-138.39999389648438 C289,-138.39999389648438 104.12000274658203,-300.6400146484375 104.12000274658203,-300.6400146484375z"/></g><g opacity="1" transform="matrix(1,0,0,1,805.4099731445312,154.72999572753906)"><path fill="rgb(215,62,33)" fill-opacity="1" d=" M-1.8799999952316284,154.47999572753906 C-1.8799999952316284,154.47999572753906 -68.83999633789062,125.91999816894531 -116.5999984741211,59.279998779296875 C-164.0399932861328,-6.880000114440918 -160.27999877929688,-51.599998474121094 -160.27999877929688,-51.599998474121094 C-160.27999877929688,-51.599998474121094 -120.5999984741211,-82.72000122070312 -31.399999618530273,-118.31999969482422 C28.600000381469727,-142.24000549316406 110.27999877929688,-154.47999572753906 137.16000366210938,-134.55999755859375 C164.0399932861328,-114.63999938964844 118.76000213623047,-14.720000267028809 118.76000213623047,-14.720000267028809 C118.76000213623047,-14.720000267028809 36.279998779296875,144.9600067138672 36.279998779296875,144.9600067138672 C36.279998779296875,144.9600067138672 -1.8799999952316284,154.47999572753906 -1.8799999952316284,154.47999572753906z"/></g><g opacity="1" transform="matrix(1,0,0,1,445.69000244140625,478.25)"><path fill="rgb(104,149,164)" fill-opacity="1" d=" M69.76000213623047,139.44000244140625 C69.76000213623047,139.44000244140625 11.920000076293945,109.91899871826172 -24.8799991607666,67.91899871826172 C-94.4800033569336,-11.359999656677246 -108.87999725341797,-98.4000015258789 -108.87999725341797,-98.4000015258789 C-108.87999725341797,-98.4000015258789 -73.91999816894531,-139.44000244140625 -73.91999816894531,-139.44000244140625 C-73.91999816894531,-139.44000244140625 -65.19999694824219,-46.959999084472656 9.4399995803833,32.959999084472656 C58.08000183105469,85.04000091552734 108.87999725341797,108.87899780273438 108.87999725341797,108.87899780273438 C108.87999725341797,108.87899780273438 98.72000122070312,117.44000244140625 87.83999633789062,125.75900268554688 C80.87999725341797,131.1199951171875 69.76000213623047,139.44000244140625 69.76000213623047,139.44000244140625z"/></g><g opacity="1" transform="matrix(1,0,0,1,893.4099731445312,176.57000732421875)"><path fill="rgb(159,35,33)" fill-opacity="1" d=" M-21.639999389648438,153.75999450683594 C-21.639999389648438,153.75999450683594 13.079999923706055,111.91999816894531 45.959999084472656,17.600000381469727 C91.87999725341797,-113.91999816894531 51.880001068115234,-153.75999450683594 51.880001068115234,-153.75999450683594 C51.880001068115234,-153.75999450683594 38.36000061035156,-91.19999694824219 -8.600000381469727,-4.239999771118164 C-46.279998779296875,65.44000244140625 -91.87999725341797,131.75999450683594 -91.87999725341797,131.75999450683594 C-91.87999725341797,131.75999450683594 -66.76000213623047,143.0399932861328 -53.15999984741211,146.9600067138672 C-36.040000915527344,151.9199981689453 -21.639999389648438,153.75999450683594 -21.639999389648438,153.75999450683594z"/></g></g><g clip-path="url(#__lottie_element_1332)" transform="matrix(1,0,0,1,0,0)" opacity="1" style="display: block;"><g mask="url(#__lottie_element_1374_2)" style="display: block;"><g transform="matrix(1,0,0,1,594,316.5)" opacity="1"><g opacity="0.7994" transform="matrix(1,0,0,1,0,0)"><path fill="rgb(179,225,238)" fill-opacity="1" d=" M-265.33575439453125,222.81964111328125 C-273.6211242675781,217.7122802734375 -281.6077880859375,226.7357177734375 -284.840576171875,234.98184204101562 C-288.36114501953125,243.83551025390625 -291.15057373046875,256.0361633300781 -284.20440673828125,261.0691223144531 C-277.3293762207031,266.47967529296875 -268.3101501464844,258.50067138671875 -263.76263427734375,247.14537048339844 C-258.9214172363281,234.77734375 -258.76025390625,226.8651885986328 -265.33575439453125,222.81964111328125z"/></g><g opacity="1" transform="matrix(1,0,0,1,0,0)"><path fill="rgb(179,225,238)" fill-opacity="1" d=" M-17.265628814697266,-38.56908416748047 C-24.665771484375,-47.4048957824707 -36.697418212890625,-43.49940872192383 -59.818748474121094,-27.936384201049805 C-84.45362091064453,-11.424363136291504 -140.000732421875,46.138893127441406 -170.07919311523438,81.82341003417969 C-200.18173217773438,117.55874633789062 -217.7777099609375,138.60549926757812 -220.6051025390625,147.93893432617188 C-223.54258728027344,157.622314453125 -222.70846557617188,168.66929626464844 -218.30044555664062,174.08468627929688 C-213.18629455566406,180.11404418945312 -204.97970581054688,181.60650634765625 -197.52777099609375,175.7918701171875 C-190.0590362548828,169.9641876220703 -160.03994750976562,135.67340087890625 -129.57896423339844,99.25100708007812 C-99.11531829833984,62.82860565185547 -57.326393127441406,20.86250114440918 -38.23389434814453,1.636153221130371 C-19.141399383544922,-17.590194702148438 -10.635125160217285,-30.41874885559082 -17.265628814697266,-38.56908416748047z"/></g><g opacity="0" transform="matrix(1,0,0,1,0,0)"><path fill="rgb(179,225,238)" fill-opacity="1" d=" M276.489013671875,-237.04600524902344 C273.7799987792969,-241.4770050048828 269.0780029296875,-242.718994140625 264.531005859375,-242.7449951171875 C259.9840087890625,-242.77099609375 255.59100341796875,-241.58099365234375 253.4980010986328,-241.14500427246094 C251.40499877929688,-240.70899963378906 249.75,-240.13299560546875 248.2480010986328,-239.38999938964844 C246.74600219726562,-238.64700317382812 245.3990020751953,-237.73899841308594 243.9239959716797,-236.63999938964844 C239.17300415039062,-233.1020050048828 237.5,-225.16099548339844 240.76400756835938,-220.60000610351562 C245.17300415039062,-214.43800354003906 250.88400268554688,-212.71800231933594 256.843994140625,-213.89100646972656 C261.31298828125,-214.77000427246094 264.3489990234375,-215.9459991455078 267.2229919433594,-219.2239990234375 C270.09698486328125,-222.5019989013672 281.9079895019531,-228.1840057373047 276.489013671875,-237.04600524902344z"/></g></g></g><g mask="url(#__lottie_element_1380_1)" style="display: block;"><g transform="matrix(1,0,0,1,594,316.5)" opacity="1"><g opacity="0.7994" transform="matrix(1,0,0,1,0,0)"><path fill="rgb(237,106,101)" fill-opacity="1" d=" M-265.33575439453125,222.81964111328125 C-273.6211242675781,217.7122802734375 -281.6077880859375,226.7357177734375 -284.840576171875,234.98184204101562 C-288.36114501953125,243.83551025390625 -291.15057373046875,256.0361633300781 -284.20440673828125,261.0691223144531 C-277.3293762207031,266.47967529296875 -268.3101501464844,258.50067138671875 -263.76263427734375,247.14537048339844 C-258.9214172363281,234.77734375 -258.76025390625,226.8651885986328 -265.33575439453125,222.81964111328125z"/></g><g opacity="1" transform="matrix(1,0,0,1,0,0)"><path fill="rgb(237,106,101)" fill-opacity="1" d=" M-17.265628814697266,-38.56908416748047 C-24.665771484375,-47.4048957824707 -36.697418212890625,-43.49940872192383 -59.818748474121094,-27.936384201049805 C-84.45362091064453,-11.424363136291504 -140.000732421875,46.138893127441406 -170.07919311523438,81.82341003417969 C-200.18173217773438,117.55874633789062 -217.7777099609375,138.60549926757812 -220.6051025390625,147.93893432617188 C-223.54258728027344,157.622314453125 -222.70846557617188,168.66929626464844 -218.30044555664062,174.08468627929688 C-213.18629455566406,180.11404418945312 -204.97970581054688,181.60650634765625 -197.52777099609375,175.7918701171875 C-190.0590362548828,169.9641876220703 -160.03994750976562,135.67340087890625 -129.57896423339844,99.25100708007812 C-99.11531829833984,62.82860565185547 -57.326393127441406,20.86250114440918 -38.23389434814453,1.636153221130371 C-19.141399383544922,-17.590194702148438 -10.635125160217285,-30.41874885559082 -17.265628814697266,-38.56908416748047z"/><path stroke-linecap="butt" stroke-linejoin="miter" fill-opacity="0" stroke-miterlimit="4" stroke="rgb(237,106,101)" stroke-opacity="1" stroke-width="1" d=" M-17.265628814697266,-38.56908416748047 C-24.665771484375,-47.4048957824707 -36.697418212890625,-43.49940872192383 -59.818748474121094,-27.936384201049805 C-84.45362091064453,-11.424363136291504 -140.000732421875,46.138893127441406 -170.07919311523438,81.82341003417969 C-200.18173217773438,117.55874633789062 -217.7777099609375,138.60549926757812 -220.6051025390625,147.93893432617188 C-223.54258728027344,157.622314453125 -222.70846557617188,168.66929626464844 -218.30044555664062,174.08468627929688 C-213.18629455566406,180.11404418945312 -204.97970581054688,181.60650634765625 -197.52777099609375,175.7918701171875 C-190.0590362548828,169.9641876220703 -160.03994750976562,135.67340087890625 -129.57896423339844,99.25100708007812 C-99.11531829833984,62.82860565185547 -57.326393127441406,20.86250114440918 -38.23389434814453,1.636153221130371 C-19.141399383544922,-17.590194702148438 -10.635125160217285,-30.41874885559082 -17.265628814697266,-38.56908416748047z"/></g><g opacity="0" transform="matrix(1,0,0,1,0,0)"><path fill="rgb(237,106,101)" fill-opacity="1" d=" M276.489013671875,-237.04600524902344 C273.7799987792969,-241.4770050048828 269.0780029296875,-242.718994140625 264.531005859375,-242.7449951171875 C259.9840087890625,-242.77099609375 255.59100341796875,-241.58099365234375 253.4980010986328,-241.14500427246094 C251.40499877929688,-240.70899963378906 249.75,-240.13299560546875 248.2480010986328,-239.38999938964844 C246.74600219726562,-238.64700317382812 245.3990020751953,-237.73899841308594 243.9239959716797,-236.63999938964844 C239.17300415039062,-233.1020050048828 237.5,-225.16099548339844 240.76400756835938,-220.60000610351562 C245.17300415039062,-214.43800354003906 250.88400268554688,-212.71800231933594 256.843994140625,-213.89100646972656 C261.31298828125,-214.77000427246094 264.3489990234375,-215.9459991455078 267.2229919433594,-219.2239990234375 C270.09698486328125,-222.5019989013672 281.9079895019531,-228.1840057373047 276.489013671875,-237.04600524902344z"/></g></g></g></g><g clip-path="url(#__lottie_element_1417)" transform="matrix(1,0,0,1,0,0)" opacity="1" style="display: none;"><g mask="url(#__lottie_element_1447_2)" style="display: block;"><g transform="matrix(1,0,0,1,594,316.5)" opacity="1"><g opacity="0" transform="matrix(1,0,0,1,0,0)"><path fill="rgb(179,225,238)" fill-opacity="1" d=" M-283.37701416015625,254.8459930419922 C-290.5740051269531,251.1320037841797 -292.79901123046875,255.6699981689453 -293.3370056152344,260.0849914550781 C-293.875,264.5 -295.3789978027344,269.5899963378906 -289.02801513671875,272.9670104980469 C-284.5,275.375 -279.968994140625,269.00799560546875 -279.2650146484375,266.2850036621094 C-278.125,261.875 -277.75,257.75 -283.37701416015625,254.8459930419922z"/></g><g opacity="1" transform="matrix(1,0,0,1,0,0)"><path fill="rgb(179,225,238)" fill-opacity="1" d=" M-222.6027069091797,159.62655639648438 C-227.73538208007812,155.6560516357422 -234.75692749023438,157.92098999023438 -242.256591796875,163.4733428955078 C-249.86334228515625,169.0928497314453 -259.3509826660156,180.079833984375 -264.8619079589844,189.1096954345703 C-270.70904541015625,198.84938049316406 -274.9092102050781,209.2593994140625 -276.224365234375,217.9113006591797 C-277.54730224609375,226.5879669189453 -276.76348876953125,234.43190002441406 -272.8089599609375,238.3090362548828 C-267.6150207519531,243.34471130371094 -260.95709228515625,243.3388214111328 -254.36184692382812,238.83871459960938 C-247.76541137695312,234.3376922607422 -239.58250427246094,223.8453369140625 -232.63206481933594,209.96839904785156 C-225.644287109375,196.0914764404297 -220.30824279785156,184.31259155273438 -218.71556091308594,176.2987060546875 C-217.1228790283203,168.2848358154297 -218.41656494140625,162.8795166015625 -222.6027069091797,159.62655639648438z"/></g><g opacity="1" transform="matrix(1,0,0,1,0,0)"><path fill="rgb(179,225,238)" fill-opacity="1" d=" M277.0009460449219,-236.8175506591797 C269.2266845703125,-252.2964630126953 225.79466247558594,-234.6997833251953 184.4792022705078,-214.5888671875 C140.21047973632812,-193.03567504882812 48.00967025756836,-126.77166748046875 -15.074604034423828,-71.84362030029297 C-74.31575775146484,-20.414539337158203 -109.7101821899414,17.573699951171875 -115.71392059326172,27.12693214416504 C-122.00199890136719,37.30592346191406 -122.04011535644531,51.376365661621094 -117.93707275390625,58.74732971191406 C-114.1464614868164,66.25809478759766 -103.38821411132812,70.92767333984375 -92.97311401367188,63.90854263305664 C-82.55802154541016,56.81988525390625 -24.822952270507812,-5.845401763916016 30.212726593017578,-52.36804962158203 C80.48424530029297,-94.93944549560547 157.0912628173828,-151.15286254882812 197.41946411132812,-176.67098999023438 C237.7476806640625,-202.18911743164062 284.59539794921875,-221.76873779296875 277.0009460449219,-236.8175506591797z"/></g></g></g><g mask="url(#__lottie_element_1453_1)" style="display: block;"><g transform="matrix(1,0,0,1,594,316.5)" opacity="1"><g opacity="0" transform="matrix(1,0,0,1,0,0)"><path fill="rgb(237,106,101)" fill-opacity="1" d=" M-283.37701416015625,254.8459930419922 C-290.5740051269531,251.1320037841797 -292.79901123046875,255.6699981689453 -293.3370056152344,260.0849914550781 C-293.875,264.5 -295.3789978027344,269.5899963378906 -289.02801513671875,272.9670104980469 C-284.5,275.375 -279.968994140625,269.00799560546875 -279.2650146484375,266.2850036621094 C-278.125,261.875 -277.75,257.75 -283.37701416015625,254.8459930419922z"/></g><g opacity="1" transform="matrix(1,0,0,1,0,0)"><path fill="rgb(237,106,101)" fill-opacity="1" d=" M-222.6027069091797,159.62655639648438 C-227.73538208007812,155.6560516357422 -234.75692749023438,157.92098999023438 -242.256591796875,163.4733428955078 C-249.86334228515625,169.0928497314453 -259.3509826660156,180.079833984375 -264.8619079589844,189.1096954345703 C-270.70904541015625,198.84938049316406 -274.9092102050781,209.2593994140625 -276.224365234375,217.9113006591797 C-277.54730224609375,226.5879669189453 -276.76348876953125,234.43190002441406 -272.8089599609375,238.3090362548828 C-267.6150207519531,243.34471130371094 -260.95709228515625,243.3388214111328 -254.36184692382812,238.83871459960938 C-247.76541137695312,234.3376922607422 -239.58250427246094,223.8453369140625 -232.63206481933594,209.96839904785156 C-225.644287109375,196.0914764404297 -220.30824279785156,184.31259155273438 -218.71556091308594,176.2987060546875 C-217.1228790283203,168.2848358154297 -218.41656494140625,162.8795166015625 -222.6027069091797,159.62655639648438z"/><path stroke-linecap="butt" stroke-linejoin="miter" fill-opacity="0" stroke-miterlimit="4" stroke="rgb(237,106,101)" stroke-opacity="1" stroke-width="1" d=" M-222.6027069091797,159.62655639648438 C-227.73538208007812,155.6560516357422 -234.75692749023438,157.92098999023438 -242.256591796875,163.4733428955078 C-249.86334228515625,169.0928497314453 -259.3509826660156,180.079833984375 -264.8619079589844,189.1096954345703 C-270.70904541015625,198.84938049316406 -274.9092102050781,209.2593994140625 -276.224365234375,217.9113006591797 C-277.54730224609375,226.5879669189453 -276.76348876953125,234.43190002441406 -272.8089599609375,238.3090362548828 C-267.6150207519531,243.34471130371094 -260.95709228515625,243.3388214111328 -254.36184692382812,238.83871459960938 C-247.76541137695312,234.3376922607422 -239.58250427246094,223.8453369140625 -232.63206481933594,209.96839904785156 C-225.644287109375,196.0914764404297 -220.30824279785156,184.31259155273438 -218.71556091308594,176.2987060546875 C-217.1228790283203,168.2848358154297 -218.41656494140625,162.8795166015625 -222.6027069091797,159.62655639648438z"/></g><g opacity="1" transform="matrix(1,0,0,1,0,0)"><path fill="rgb(237,106,101)" fill-opacity="1" d=" M277.0009460449219,-236.8175506591797 C269.2266845703125,-252.2964630126953 225.79466247558594,-234.6997833251953 184.4792022705078,-214.5888671875 C140.21047973632812,-193.03567504882812 48.00967025756836,-126.77166748046875 -15.074604034423828,-71.84362030029297 C-74.31575775146484,-20.414539337158203 -109.7101821899414,17.573699951171875 -115.71392059326172,27.12693214416504 C-122.00199890136719,37.30592346191406 -122.04011535644531,51.376365661621094 -117.93707275390625,58.74732971191406 C-114.1464614868164,66.25809478759766 -103.38821411132812,70.92767333984375 -92.97311401367188,63.90854263305664 C-82.55802154541016,56.81988525390625 -24.822952270507812,-5.845401763916016 30.212726593017578,-52.36804962158203 C80.48424530029297,-94.93944549560547 157.0912628173828,-151.15286254882812 197.41946411132812,-176.67098999023438 C237.7476806640625,-202.18911743164062 284.59539794921875,-221.76873779296875 277.0009460449219,-236.8175506591797z"/></g></g></g></g><g transform="matrix(1,0,0,1,25.165008544921875,21.33447265625)" opacity="1" style="display: block;"><g opacity="1" transform="matrix(1,0,0,1,621.8499755859375,355.25)"><path fill="rgb(224,224,224)" fill-opacity="1" d=" M64.95999908447266,-66.76000213623047 C20.399999618530273,-107.80000305175781 -41.599998474121094,-96.76000213623047 -72.16000366210938,-60.279998779296875 C-103.5199966430664,-22.68000030517578 -101.19999694824219,34.7599983215332 -64.16000366210938,69.31999969482422 C-30.479999542236328,100.68000030517578 32.15999984741211,107.80000305175781 69.91999816894531,63.79999923706055 C103.5199966430664,24.760000228881836 101.44000244140625,-33.2400016784668 64.95999908447266,-66.76000213623047z"/></g><g opacity="1" transform="matrix(1,0,0,1,620.489990234375,355.3699951171875)"><path fill="rgb(62,83,95)" fill-opacity="1" d=" M-47.7599983215332,-45.91999816894531 C-74.23999786376953,-19.920000076293945 -72.80000305175781,31.600000381469727 -41.279998779296875,55.119998931884766 C-13.760000228881836,75.68000030517578 25.280000686645508,74.63999938964844 49.7599983215332,49.599998474121094 C74.23999786376953,24.559999465942383 74.23999786376953,-20.959999084472656 51.279998779296875,-44.47999954223633 C24.8799991607666,-71.44000244140625 -17.440000534057617,-75.68000030517578 -47.7599983215332,-45.91999816894531z"/></g></g><g mask="url(#__lottie_element_1341_1)" style="display: block;"><g transform="matrix(1,0,0,1,512,512)" opacity="0.5"><g opacity="1" transform="matrix(1,0,0,1,0,0)"><path fill="rgb(67,118,135)" fill-opacity="1" d=" M301,-150 C301,-150 270,-106 232.5,-61 C198.71400451660156,-20.457000732421875 153.5,26.5 153.5,26.5 C153.5,26.5 207.93600463867188,39.827999114990234 269,-26.5 C327,-89.5 301,-150 301,-150z"/></g></g></g><g transform="matrix(1,0,0,1,29.910003662109375,25.510009765625)" opacity="1" style="display: block;"><g opacity="1" transform="matrix(1,0,0,1,0,0)"><g opacity="1" transform="matrix(1,0,0,1,290.2099914550781,687.489990234375)"><path fill="rgb(159,36,35)" fill-opacity="1" d=" M64.70033264160156,-104.1892318725586 C67.92594146728516,-105.54045867919922 126.55404663085938,-151.44053649902344 131.99404907226562,-146.0005340576172 C137.43405151367188,-140.56053161621094 135.5414276123047,-111.64401245117188 111.23140716552734,-77.29875946044922 C95.68816375732422,-55.532196044921875 74.67459869384766,-30.58169174194336 50.38394546508789,-3.6865406036376953 C33.960227966308594,14.806907653808594 -104.41421508789062,140.2704620361328 -109.69876098632812,139.58779907226562 C-113.94698333740234,139.0374755859375 -137.87474060058594,129.5343017578125 -144.75473022460938,121.21430206298828 C-151.4747314453125,112.97330474853516 -130.35142517089844,74.29730224609375 -122.27141571044922,61.418304443359375 C-114.11141967773438,48.53830337524414 63.6622428894043,-103.75426483154297 64.70033264160156,-104.1892318725586z"/></g><g opacity="1" transform="matrix(1,0,0,1,282.1700134277344,674.1699829101562)"><path fill="rgb(201,44,48)" fill-opacity="1" d=" M-152.39141845703125,106.81830596923828 C-153.35427856445312,116.99778747558594 -136.4747314453125,134.85430908203125 -136.4747314453125,134.85430908203125 C-136.4747314453125,134.85430908203125 -55.755435943603516,53.10543441772461 10.45167350769043,-13.85753059387207 C53.96027374267578,-57.86252212524414 91.20068359375,-95.48169708251953 95.14773559570312,-99.31941986083984 C108.05049896240234,-110.20166015625 140.88006591796875,-131.62197875976562 139.89129638671875,-132.6466064453125 C138.9025421142578,-133.67124938964844 113.3182601928711,-144.06927490234375 76.37769317626953,-121.9029769897461 C44.56987762451172,-102.28856658935547 16.859477996826172,-79.1512222290039 -34.68158721923828,-28.91939926147461 C-104.02947235107422,38.714725494384766 -151.4031524658203,96.59123992919922 -152.39141845703125,106.81830596923828z"/></g></g><g opacity="1" transform="matrix(1,0,0,1,0,0)"><g opacity="1" transform="matrix(1,0,0,1,475.57000732421875,800.969970703125)"><path fill="rgb(159,35,33)" fill-opacity="1" d=" M24.405426025390625,-103.99703979492188 C-21.946998596191406,-83.29200744628906 -58.42300033569336,-83.58499908447266 -58.42300033569336,-83.58499908447266 C-58.42300033569336,-83.58499908447266 -121.29755401611328,45.68000030517578 -121.29755401611328,45.68000030517578 C-121.29755401611328,45.68000030517578 -65.28595733642578,171.83999633789062 -62.725955963134766,171.83999633789062 C-60.16595458984375,171.83999633789062 -26.81755256652832,174.39999389648438 -26.81755256652832,174.39999389648438 C-26.81755256652832,174.39999389648438 88.3824462890625,45.599998474121094 88.3824462890625,45.599998474121094 C88.3824462890625,45.599998474121094 117.02799987792969,-156.47900390625 117.02799987792969,-156.47900390625 C117.02799987792969,-156.47900390625 109.07951354980469,-153.1964111328125 101.77422332763672,-147.6458282470703 C90.59722900390625,-139.15255737304688 61.33475112915039,-120.50902557373047 24.405426025390625,-103.99703979492188z"/></g><g opacity="1" transform="matrix(1,0,0,1,458.80999755859375,850.4089965820312)"><path fill="rgb(201,44,48)" fill-opacity="1" d=" M-35.866512298583984,-73.65876007080078 C-35.866512298583984,-73.65876007080078 1.250170111656189,-80.37544250488281 28.450170516967773,-93.33544158935547 C55.650169372558594,-106.29544067382812 88.30176544189453,-126.7936782836914 88.30176544189453,-126.7936782836914 C88.30176544189453,-126.7936782836914 74.2740478515625,-14.800000190734863 74.2740478515625,-14.800000190734863 C74.2740478515625,-14.800000190734863 -46.125953674316406,122.23999786376953 -46.125953674316406,122.23999786376953 C-46.125953674316406,122.23999786376953 -91.33755493164062,25.760000228881836 -91.33755493164062,25.760000228881836 C-91.33755493164062,25.760000228881836 -35.866512298583984,-73.65876007080078 -35.866512298583984,-73.65876007080078z"/></g><g opacity="1" transform="matrix(1,0,0,1,176.88999938964844,480.7650146484375)"><path fill="rgb(201,44,48)" fill-opacity="1" d=" M-174.17295837402344,64.90887451171875 C-174.17295837402344,64.90887451171875 -43.07404708862305,-64.0809555053711 -43.07404708862305,-64.0809555053711 C-43.07404708862305,-64.0809555053711 155.81533813476562,-96.48251342773438 155.81533813476562,-96.48251342773438 C155.81533813476562,-96.48251342773438 137.67799377441406,-72.14800262451172 117.9729995727539,-41.176998138427734 C93.69999694824219,-3.0250000953674316 86.63999938964844,33.80500030517578 86.63999938964844,33.80500030517578 C86.63999938964844,33.80500030517578 -166.72206115722656,98.01887512207031 -166.72206115722656,98.01887512207031 C-166.72206115722656,98.01887512207031 -174.17295837402344,64.90887451171875 -174.17295837402344,64.90887451171875z"/></g><g opacity="1" transform="matrix(1,0,0,1,159.3300018310547,521.8499755859375)"><path fill="rgb(159,35,33)" fill-opacity="1" d=" M-6.668402194976807,-72.1259536743164 C-6.668402194976807,-72.1259536743164 -148.9680633544922,57.02387619018555 -148.9680633544922,57.02387619018555 C-148.9680633544922,57.02387619018555 -12.024872779846191,97.26297760009766 -12.024872779846191,97.26297760009766 C-12.024872779846191,97.26297760009766 99.73999786376953,37.43000030517578 99.73999786376953,37.43000030517578 C99.73999786376953,37.43000030517578 99.97000122070312,5.150000095367432 109.23999786376953,-26.229999542236328 C118.51000213623047,-57.61000061035156 144.0543975830078,-96.09931945800781 144.0543975830078,-96.09931945800781 C144.0543975830078,-96.09931945800781 -6.668402194976807,-72.1259536743164 -6.668402194976807,-72.1259536743164z"/></g></g></g></g></g></svg>